<?xml version="1.0" encoding="utf-8"?>
<!-- Generator: Adobe Illustrator 18.0.0, SVG Export Plug-In . SVG Version: 6.00 Build 0)  -->
<!DOCTYPE svg PUBLIC "-//W3C//DTD SVG 1.1//EN" "http://www.w3.org/Graphics/SVG/1.1/DTD/svg11.dtd">
<svg version="1.1" id="Layer_1" xmlns="http://www.w3.org/2000/svg" xmlns:xlink="http://www.w3.org/1999/xlink" x="0px" y="0px"
	 viewBox="0 0 16 16" enable-background="new 0 0 16 16" xml:space="preserve">
<g>
	<path fill="#1c99fe" d="M10.9,0.5h-9C1.3,0.5,0.8,1,0.8,1.6v12.8c0,0.6,0.5,1.1,1.1,1.1h9c0.6,0,1.1-0.5,1.1-1.1V1.6
		C11.9,1,11.5,0.5,10.9,0.5z M6.4,13.8c-0.4,0-0.7-0.3-0.7-0.7c0-0.4,0.3-0.7,0.7-0.7c0.4,0,0.7,0.3,0.7,0.7
		C7.1,13.5,6.8,13.8,6.4,13.8z M10.8,10.2c0,0.2-0.2,0.4-0.4,0.4h-8c-0.2,0-0.4-0.2-0.4-0.4v-8c0-0.2,0.2-0.4,0.4-0.4h8
		c0.2,0,0.4,0.2,0.4,0.4V10.2z"/>
	<g>
		<polygon fill="#1c99fe" points="14.2,15.5 15.2,12.8 13.2,12.8 		"/>
		<path fill="#1c99fe" d="M14.2,0.5c-0.5,0-1,0.4-1,1v1.7h1.9V1.5C15.2,1,14.7,0.5,14.2,0.5z"/>
		<rect x="13.2" y="3.6" fill="#1c99fe" width="1.9" height="8.7"/>
	</g>
</g>
</svg>
