<?xml version="1.0" encoding="utf-8"?>
<!-- Generator: Adobe Illustrator 18.0.0, SVG Export Plug-In . SVG Version: 6.00 Build 0)  -->
<!DOCTYPE svg PUBLIC "-//W3C//DTD SVG 1.1//EN" "http://www.w3.org/Graphics/SVG/1.1/DTD/svg11.dtd">
<svg version="1.1" id="Layer_1" xmlns="http://www.w3.org/2000/svg" xmlns:xlink="http://www.w3.org/1999/xlink" x="0px" y="0px"
	 viewBox="0 0 16 16" enable-background="new 0 0 16 16" xml:space="preserve">
<g>
	<path fill="#03c443" d="M7.6,10.7l2.8-0.7c0-0.6-0.3-1.2-0.7-1.7C9.2,7.9,8.5,7.6,7.8,7.7l-0.7,2.5C7,10.5,7.3,10.8,7.6,10.7z"/>
	<path fill="#03c443" d="M15.4,4.6l-2.1-2.1c-0.2-0.2-0.4-0.2-0.6,0L8.2,6.9C9,7,9.7,7.3,10.2,7.9c0.5,0.5,0.7,1,0.9,1.6l4.3-4.3
		C15.5,5,15.5,4.7,15.4,4.6z M11.2,7.2c-0.1,0.1-0.4,0.1-0.5,0c-0.1-0.1-0.1-0.4,0-0.5L13.3,4c0.1-0.1,0.4-0.1,0.5,0
		c0.1,0.1,0.1,0.4,0,0.5L11.2,7.2z"/>
	<path fill="#03c443" d="M11.7,10.6l-0.4,0.5l-0.9,0.2l-2.3,0.6c-0.1,0-0.3,0-0.4,0c-0.5,0-1-0.2-1.3-0.6C5.9,10.9,5.8,10.4,6,9.9
		L6.5,8l0.3-1.3l0.1-0.1l4.9-4.9c0.1-0.1,0.2-0.2,0.3-0.2V0.5H0.5v15h11.6v-5.4L11.7,10.6z"/>
</g>
</svg>
