<?xml version="1.0" encoding="utf-8"?>
<!-- Generator: Adobe Illustrator 18.0.0, SVG Export Plug-In . SVG Version: 6.00 Build 0)  -->
<!DOCTYPE svg PUBLIC "-//W3C//DTD SVG 1.1//EN" "http://www.w3.org/Graphics/SVG/1.1/DTD/svg11.dtd">
<svg version="1.1" id="Layer_1" xmlns="http://www.w3.org/2000/svg" xmlns:xlink="http://www.w3.org/1999/xlink" x="0px" y="0px"
	 viewBox="0 0 16 16" enable-background="new 0 0 16 16" xml:space="preserve">
<g>
	<path fill="#010101" d="M7.5,13.1c-2.2-1.7-4.9-1.7-7,0c0-3.8,0-7.5,0-11.3c2.2-1.7,4.9-1.7,7,0C7.5,5.5,7.5,9.3,7.5,13.1z"/>
	<path fill="#010101" d="M15.5,13.1c-2.2-1.7-4.9-1.7-7,0c0-3.8,0-7.5,0-11.3c2.2-1.7,4.9-1.7,7,0C15.5,5.5,15.5,9.3,15.5,13.1z"/>
	<path fill="#010101" d="M8.5,13.9L8.5,13.9c-0.3,0.2-0.6,0.2-0.9,0v0c-2.2-1.7-4.9-1.7-7,0c0,0.5,0,1,0,1.5c2.2-1.6,4.9-1.6,7,0v0
		c0.3,0.2,0.6,0.2,0.9,0v0c2.2-1.6,4.9-1.6,7,0c0-0.5,0-1,0-1.5C13.3,12.2,10.6,12.2,8.5,13.9z"/>
</g>
</svg>
